<svg  xmlns="http://www.w3.org/2000/svg" xmlns:xlink="http://www.w3.org/1999/xlink" x="0px" y="0px"
	 viewBox="0 0 228.2 90" style="enable-background:new 0 0 228.2 90;" xml:space="preserve">
<style type="text/css">
	#logosvg path{ fill : white}
</style>
<g id='logosvg'>
	<path d="M18.9,0c0,14.9,0,29.9,0,46.2c5.4-6.5,10.3-12,14.8-17.8c2.1-2.7,4.3-3.6,7.6-3.5c5.1,0.2,10.3,0.1,16.7,0.1
		c-7.7,9.6-14.7,18.4-22,27.5c7.1,8.9,14.1,17.7,21.9,27.4c-7.5,0-14.1,0.1-20.7-0.1c-1,0-2-1.6-2.8-2.6
		c-4.9-5.8-9.8-11.6-15.5-18.5c0,7.8,0,14.3,0,21.4C12.2,80,6.1,80,0,80C0,53.3,0,26.7,0,0C6.4,0,12.6,0,18.9,0z"/>
	<path d="M140.4,0c0,10.6,0,21.2,0,31.4c4.8-2.3,8.8-5.4,13.4-6.4c11.5-2.4,21.2,3.9,22.3,15.5c1.2,12.8,0.3,25.9,0.3,39.1
		c-5.4,0-11.3,0-17.8,0c0-7.9,0-15.7,0-23.4c0-2.3,0-4.7-0.1-7c-0.4-5.4-3.4-8.7-8.2-9c-4.9-0.3-8.8,2.8-9.2,8.4
		c-0.5,6.3-0.3,12.6-0.3,19c0,4,0,7.9,0,12.1c-6.3,0-12,0-18.1,0c-0.1-1.1-0.4-2.2-0.4-3.3c0-24.7,0-49.3,0-74
		c0-0.8,0.2-1.6,0.3-2.5C128.4,0,134.4,0,140.4,0z"/>
	<path d="M204.1,0c0.1,15.3,0.2,30.6,0.3,45.9c0,11.1,0,22.3,0,33.8c-6.1,0-12,0-18.2,0c0-26.6,0-53.1,0-79.6
		C192.2,0,198.1,0,204.1,0z"/>
	<path d="M218,90c0.6-1.4,1.3-2.7,1.9-4.1c0.7-1.7,1.4-3.5,2.2-5.7c-3.2-0.2-5.7-0.3-8.6-0.4c0-4.4,0-8.8,0-13.7
		c3.4,0,6.6-0.1,9.9,0.1c0.9,0.1,2.1,0.9,2.6,1.7c4,6.9,2.1,17.1-4.1,22.1C220.7,90,219.4,90,218,90z"/>
	<path d="M85.8,23.8c15.3,0.1,27.7,13,27.5,28.9c-0.1,15.9-12.6,28.5-27.9,28.5C70.1,81,57.8,68.1,57.9,52.2
		C58,36.4,70.5,23.7,85.8,23.8z M98.5,52.8c0.2-7.2-5.5-13.4-12.4-13.7c-6.9-0.3-13,5.5-13.3,12.8c-0.3,7.3,5.5,13.9,12.6,14
		C92.2,66,98.3,60,98.5,52.8z"/>
	<path class="st0" d="M98.5,52.8C98.3,60,92.2,66,85.4,65.8c-7.1-0.2-13-6.7-12.6-14c0.3-7.2,6.4-13.1,13.3-12.8
		C93,39.3,98.7,45.6,98.5,52.8z"/>
</g>
</svg>
